<mxfile host="app.diagrams.net" agent="Mozilla/5.0 (Macintosh; Intel Mac OS X 10_15_7) AppleWebKit/537.36 (KHTML, like Gecko) Chrome/138.0.0.0 Safari/537.36" version="28.0.7">
  <diagram name="Page-1" id="_gVc7mixbf9P4irSID4z">
    <mxGraphModel grid="1" page="1" gridSize="10" guides="1" tooltips="1" connect="1" arrows="1" fold="1" pageScale="1" pageWidth="850" pageHeight="1100" math="0" shadow="0">
      <root>
        <mxCell id="0" />
        <mxCell id="1" parent="0" />
        <mxCell id="NujAStLh1tiRep0dk-tb-1" value="Traditional Messaging + Workflow" style="rounded=1;whiteSpace=wrap;html=1;fillColor=#f8cecc;strokeColor=#b85450;" vertex="1" parent="1">
          <mxGeometry x="330" y="50" width="170" height="60" as="geometry" />
        </mxCell>
        <mxCell id="NujAStLh1tiRep0dk-tb-3" value="Regional Data Sharing&lt;br&gt;(Clinical Data Repository)" style="rounded=1;whiteSpace=wrap;html=1;fillColor=#f8cecc;strokeColor=#b85450;" vertex="1" parent="1">
          <mxGeometry x="210" y="240" width="170" height="60" as="geometry" />
        </mxCell>
        <mxCell id="NujAStLh1tiRep0dk-tb-4" value="FHIR Workflow" style="rounded=1;whiteSpace=wrap;html=1;fillColor=#f8cecc;strokeColor=#b85450;" vertex="1" parent="1">
          <mxGeometry x="460" y="240" width="170" height="60" as="geometry" />
        </mxCell>
        <mxCell id="NujAStLh1tiRep0dk-tb-5" value="HL7 FHIR RESTful and IHE QEDm PCC-44" style="text;html=1;align=center;verticalAlign=middle;whiteSpace=wrap;rounded=0;" vertex="1" parent="1">
          <mxGeometry x="215" y="310" width="160" height="30" as="geometry" />
        </mxCell>
        <mxCell id="NujAStLh1tiRep0dk-tb-6" value="HL7 FHIR Subscription" style="text;html=1;align=center;verticalAlign=middle;whiteSpace=wrap;rounded=0;" vertex="1" parent="1">
          <mxGeometry x="465" y="300" width="160" height="30" as="geometry" />
        </mxCell>
        <mxCell id="NujAStLh1tiRep0dk-tb-7" value="Email Notifications" style="rounded=1;whiteSpace=wrap;html=1;fillColor=#dae8fc;strokeColor=#6c8ebf;" vertex="1" parent="1">
          <mxGeometry x="390" y="400" width="140" height="60" as="geometry" />
        </mxCell>
        <mxCell id="NujAStLh1tiRep0dk-tb-8" value="IHE LTW LAB-3 + HL7 v2 ORU" style="text;html=1;align=center;verticalAlign=middle;whiteSpace=wrap;rounded=0;" vertex="1" parent="1">
          <mxGeometry x="327.5" y="20" width="175" height="30" as="geometry" />
        </mxCell>
        <mxCell id="NujAStLh1tiRep0dk-tb-9" value="Task Notifications" style="rounded=1;whiteSpace=wrap;html=1;fillColor=#dae8fc;strokeColor=#6c8ebf;" vertex="1" parent="1">
          <mxGeometry x="560" y="400" width="140" height="60" as="geometry" />
        </mxCell>
        <mxCell id="NujAStLh1tiRep0dk-tb-10" value="" style="shape=flexArrow;endArrow=classic;html=1;rounded=0;" edge="1" parent="1">
          <mxGeometry width="50" height="50" relative="1" as="geometry">
            <mxPoint x="390" y="120" as="sourcePoint" />
            <mxPoint x="290" y="230" as="targetPoint" />
          </mxGeometry>
        </mxCell>
        <mxCell id="NujAStLh1tiRep0dk-tb-11" value="" style="shape=flexArrow;endArrow=classic;html=1;rounded=0;" edge="1" parent="1">
          <mxGeometry width="50" height="50" relative="1" as="geometry">
            <mxPoint x="440" y="120" as="sourcePoint" />
            <mxPoint x="550" y="230" as="targetPoint" />
          </mxGeometry>
        </mxCell>
        <mxCell id="NujAStLh1tiRep0dk-tb-12" value="" style="shape=flexArrow;endArrow=classic;html=1;rounded=0;" edge="1" parent="1">
          <mxGeometry width="50" height="50" relative="1" as="geometry">
            <mxPoint x="520" y="340" as="sourcePoint" />
            <mxPoint x="460" y="390" as="targetPoint" />
          </mxGeometry>
        </mxCell>
        <mxCell id="NujAStLh1tiRep0dk-tb-13" value="" style="shape=flexArrow;endArrow=classic;html=1;rounded=0;" edge="1" parent="1">
          <mxGeometry width="50" height="50" relative="1" as="geometry">
            <mxPoint x="580" y="340" as="sourcePoint" />
            <mxPoint x="630" y="390" as="targetPoint" />
          </mxGeometry>
        </mxCell>
        <mxCell id="NujAStLh1tiRep0dk-tb-14" value="Build on existing messaging (and domain knowledge).&amp;nbsp;" style="text;html=1;align=center;verticalAlign=middle;whiteSpace=wrap;rounded=0;fillColor=#fff2cc;strokeColor=#d6b656;" vertex="1" parent="1">
          <mxGeometry x="330" y="180" width="180" height="30" as="geometry" />
        </mxCell>
        <mxCell id="NujAStLh1tiRep0dk-tb-15" value="Traditional Messaging replacement option for new suppliers" style="text;html=1;align=center;verticalAlign=middle;whiteSpace=wrap;rounded=0;fillColor=#fff2cc;strokeColor=#d6b656;" vertex="1" parent="1">
          <mxGeometry x="660" y="215" width="180" height="55" as="geometry" />
        </mxCell>
        <mxCell id="NujAStLh1tiRep0dk-tb-16" value="Report is available for all care providers, not just those participating in the order workflow" style="text;html=1;align=center;verticalAlign=middle;whiteSpace=wrap;rounded=0;fillColor=#fff2cc;strokeColor=#d6b656;" vertex="1" parent="1">
          <mxGeometry x="10" y="200" width="180" height="65" as="geometry" />
        </mxCell>
        <mxCell id="NujAStLh1tiRep0dk-tb-17" value="Use this phase to standardise the regional data model" style="text;html=1;align=center;verticalAlign=middle;whiteSpace=wrap;rounded=0;fillColor=#fff2cc;strokeColor=#d6b656;" vertex="1" parent="1">
          <mxGeometry x="520" y="65" width="180" height="30" as="geometry" />
        </mxCell>
        <mxCell id="NujAStLh1tiRep0dk-tb-18" value="This mirrors common practice in the North for sharing EHR data. E,g, YHCR and GMCR" style="text;html=1;align=center;verticalAlign=middle;whiteSpace=wrap;rounded=0;fillColor=#fff2cc;strokeColor=#d6b656;" vertex="1" parent="1">
          <mxGeometry x="10" y="270" width="180" height="50" as="geometry" />
        </mxCell>
        <mxCell id="NujAStLh1tiRep0dk-tb-19" value="Aligns with National Genomic Order Management Service" style="text;html=1;align=center;verticalAlign=middle;whiteSpace=wrap;rounded=0;fillColor=#fff2cc;strokeColor=#d6b656;" vertex="1" parent="1">
          <mxGeometry x="540" y="470" width="180" height="50" as="geometry" />
        </mxCell>
        <mxCell id="NujAStLh1tiRep0dk-tb-20" value="National Data Sharing&lt;br&gt;(Health Information Exchange)" style="rounded=1;whiteSpace=wrap;html=1;fillColor=#f8cecc;strokeColor=#b85450;dashed=1;dashPattern=8 8;" vertex="1" parent="1">
          <mxGeometry x="160" y="400" width="170" height="60" as="geometry" />
        </mxCell>
        <mxCell id="NujAStLh1tiRep0dk-tb-21" value="" style="shape=flexArrow;endArrow=classic;html=1;rounded=0;dashed=1;" edge="1" parent="1">
          <mxGeometry width="50" height="50" relative="1" as="geometry">
            <mxPoint x="290" y="350" as="sourcePoint" />
            <mxPoint x="250" y="390" as="targetPoint" />
          </mxGeometry>
        </mxCell>
        <mxCell id="NujAStLh1tiRep0dk-tb-22" value="Adds in National Genomic Order Management Service CDR data" style="text;html=1;align=center;verticalAlign=middle;whiteSpace=wrap;rounded=0;fillColor=#fff2cc;strokeColor=#d6b656;" vertex="1" parent="1">
          <mxGeometry x="155" y="470" width="180" height="50" as="geometry" />
        </mxCell>
        <mxCell id="NujAStLh1tiRep0dk-tb-23" value="&lt;font&gt;Genomic Laboratory Workflow Modernisation&lt;/font&gt;" style="text;html=1;align=center;verticalAlign=middle;whiteSpace=wrap;rounded=0;fontStyle=1;fontSize=26;" vertex="1" parent="1">
          <mxGeometry x="105" y="-130" width="620" height="30" as="geometry" />
        </mxCell>
        <mxCell id="NujAStLh1tiRep0dk-tb-24" value="More alignment to clinical workflow" style="text;html=1;align=center;verticalAlign=middle;whiteSpace=wrap;rounded=0;fillColor=#fff2cc;strokeColor=#d6b656;" vertex="1" parent="1">
          <mxGeometry x="660" y="275" width="180" height="40" as="geometry" />
        </mxCell>
        <mxCell id="V1hD8nz6f7jk9vAtkbfR-1" value="&lt;font style=&quot;font-size: 26px;&quot;&gt;&lt;b&gt;Shared&lt;/b&gt; Patient Genomic Record&lt;/font&gt;" style="rounded=1;whiteSpace=wrap;html=1;fillColor=#f5f5f5;fontColor=#333333;strokeColor=#666666;" vertex="1" parent="1">
          <mxGeometry y="540" width="390" height="90" as="geometry" />
        </mxCell>
        <mxCell id="V1hD8nz6f7jk9vAtkbfR-2" value="&lt;span style=&quot;font-size: 26px;&quot;&gt;Genomic Order &lt;b&gt;Notifications&lt;/b&gt;&lt;/span&gt;" style="rounded=1;whiteSpace=wrap;html=1;fillColor=#f5f5f5;fontColor=#333333;strokeColor=#666666;" vertex="1" parent="1">
          <mxGeometry x="460" y="540" width="380" height="90" as="geometry" />
        </mxCell>
        <mxCell id="V1hD8nz6f7jk9vAtkbfR-3" value="&lt;span style=&quot;font-size: 26px;&quot;&gt;Traditional &lt;b&gt;Send&lt;/b&gt; Genomic Order/ Report&lt;/span&gt;" style="rounded=1;whiteSpace=wrap;html=1;fillColor=#f5f5f5;fontColor=#333333;strokeColor=#666666;" vertex="1" parent="1">
          <mxGeometry x="140" y="-70" width="510" height="70" as="geometry" />
        </mxCell>
      </root>
    </mxGraphModel>
  </diagram>
</mxfile>
